HIERARCHY
ROOT root
{
	OFFSET 0.000000 0.000000 0.000000
	CHANNELS 6 Xposition Yposition Zposition Zrotation Yrotation Xrotation
	JOINT lhip
	{
		OFFSET 0.058581 -0.082280 -0.017664
		CHANNELS 3 Zrotation Yrotation Xrotation
		JOINT lknee
		{
			OFFSET 0.043451 -0.386469 0.008037
			CHANNELS 3 Zrotation Yrotation Xrotation
			JOINT lankle
			{
				OFFSET -0.014790 -0.426874 -0.037428
				CHANNELS 3 Zrotation Yrotation Xrotation
				JOINT ltoe
				{
					OFFSET 0.041054 -0.060286 0.122042
					CHANNELS 3 Zrotation Yrotation Xrotation
					End Site
					{
						OFFSET 0.000000 0.000000 0.000000
					}
				}
			}
		}
	}
	JOINT rhip
	{
		OFFSET -0.060310 -0.090513 -0.013543
		CHANNELS 3 Zrotation Yrotation Xrotation
		JOINT rknee
		{
			OFFSET -0.043257 -0.383688 -0.004843
			CHANNELS 3 Zrotation Yrotation Xrotation
			JOINT rankle
			{
				OFFSET 0.019056 -0.420046 -0.034562
				CHANNELS 3 Zrotation Yrotation Xrotation
				JOINT rtoe
				{
					OFFSET -0.034840 -0.062106 0.130323
					CHANNELS 3 Zrotation Yrotation Xrotation
					End Site
					{
						OFFSET 0.000000 0.000000 0.000000
					}
				}
			}
		}
	}
	JOINT lowerback
	{
		OFFSET 0.004439 0.124404 -0.038385
		CHANNELS 3 Zrotation Yrotation Xrotation
		JOINT upperback
		{
			OFFSET 0.004488 0.137956 0.026820
			CHANNELS 3 Zrotation Yrotation Xrotation
			JOINT chest
			{
				OFFSET -0.002265 0.056032 0.002855
				CHANNELS 3 Zrotation Yrotation Xrotation
				JOINT lowerneck
				{
					OFFSET -0.013390 0.211636 -0.033468
					CHANNELS 3 Zrotation Yrotation Xrotation
					JOINT upperneck
					{
						OFFSET 0.010113 0.088937 0.050410
						CHANNELS 3 Zrotation Yrotation Xrotation
						End Site
						{
							OFFSET 0.000000 0.000000 0.000000
						}
					}
				}
				JOINT lclavicle
				{
					OFFSET 0.071702 0.114000 -0.018898
					CHANNELS 3 Zrotation Yrotation Xrotation
					JOINT lshoulder
					{
						OFFSET 0.122921 0.045205 -0.019046
						CHANNELS 3 Zrotation Yrotation Xrotation
						JOINT lelbow
						{
							OFFSET 0.255332 -0.015649 -0.022946
							CHANNELS 3 Zrotation Yrotation Xrotation
							JOINT lwrist
							{
								OFFSET 0.265709 0.012698 -0.007375
								CHANNELS 3 Zrotation Yrotation Xrotation
								End Site
								{
									OFFSET 0.000000 0.000000 0.000000
								}
							}
						}
					}
				}
				JOINT rclavicle
				{
					OFFSET -0.082954 0.112472 -0.023707
					CHANNELS 3 Zrotation Yrotation Xrotation
					JOINT rshoulder
					{
						OFFSET -0.113228 0.046853 -0.008472
						CHANNELS 3 Zrotation Yrotation Xrotation
						JOINT relbow
						{
							OFFSET -0.260127 -0.014369 -0.031269
							CHANNELS 3 Zrotation Yrotation Xrotation
							JOINT rwrist
							{
								OFFSET -0.269108 0.006794 -0.006027
								CHANNELS 3 Zrotation Yrotation Xrotation
								End Site
								{
									OFFSET 0.000000 0.000000 0.000000
								}
							}
						}
					}
				}
			}
		}
	}
}
MOTION
Frames: 10
Frame Time: 0.033333
-0.561137 0.746876 0.980150 91.424845 -0.059153 88.290498 -2.035347 -2.928522 -7.134977 -2.122596 -4.816262 17.191946 3.499801 12.417530 -17.415093 0.000000 -0.000000 0.000000 4.460628 0.511088 -5.971244 -3.548410 -1.096153 15.351428 1.831352 -11.420396 -17.187851 0.000000 -0.000000 0.000000 -1.004633 1.846771 16.022690 -0.733851 -2.620736 -2.286399 -0.075919 -0.798360 4.126554 3.429847 0.068173 -11.868324 4.995580 -5.886854 -3.066430 -22.395677 -3.458623 0.211987 -51.901300 -8.619138 7.922750 1.865456 -16.905191 4.986324 1.894059 -5.493982 -3.774964 20.300558 5.492837 -0.804330 57.001899 1.369570 18.897690 -4.041085 29.568213 16.989812 -2.559299 3.010318 7.907371 
-0.562323 0.746015 0.977343 91.415832 -0.031539 88.791741 -1.660459 -3.095640 -9.035324 -2.788752 -4.551354 19.597876 3.685895 12.620101 -18.341502 0.000000 -0.000000 0.000000 4.482162 0.810298 -7.772852 -3.327467 -1.023029 17.614274 1.530873 -11.814467 -18.327412 0.000000 -0.000000 0.000000 -1.010933 1.858803 16.727288 -0.729701 -2.528364 -2.540560 -0.125526 -0.869317 4.342430 3.410928 0.026966 -12.478197 5.083390 -5.762660 -3.817524 -22.077832 -2.977354 0.444680 -51.542718 -7.724601 7.470357 2.004025 -16.941820 5.192424 1.861370 -5.058445 -4.005430 19.756814 5.350096 -0.737002 56.925391 1.159293 18.651947 -3.680396 29.224959 17.610630 -1.890800 2.676119 7.051518 
-0.562572 0.745409 0.974078 91.505653 0.021904 89.210874 -1.312080 -3.355743 -10.608450 -3.403764 -4.399594 21.696140 4.169052 12.992874 -19.203209 0.000000 -0.000000 0.000000 4.568420 1.143795 -9.304632 -3.157670 -0.941136 19.696198 1.082238 -12.270435 -19.446199 0.000000 -0.000000 0.000000 -1.033671 1.768278 17.562486 -0.710659 -2.463911 -2.836329 -0.147109 -0.796044 4.542477 3.634391 0.105534 -13.046630 5.180330 -5.759063 -4.545343 -21.753939 -2.357743 0.307702 -51.396319 -6.891236 7.080982 1.936506 -16.451562 5.544536 1.423626 -4.732196 -4.077034 19.445608 5.031111 -0.715629 56.688654 0.686438 18.381704 -3.546716 29.130685 18.168883 -1.444045 2.466517 6.777385 
-0.563299 0.744488 0.969108 91.421068 0.041965 90.064518 -0.833213 -3.635894 -13.180259 -4.124173 -3.843955 24.704319 4.578855 13.361242 -20.738445 0.000000 -0.000000 0.000000 4.549710 1.583487 -11.908474 -2.842319 -0.942246 22.883223 0.751070 -12.575297 -20.955087 0.000000 -0.000000 0.000000 -1.129026 1.850048 18.552861 -0.721598 -2.241861 -3.311373 -0.122089 -0.822884 4.841250 3.736395 0.430247 -13.930593 5.294530 -5.461534 -5.666746 -21.296992 -1.704158 0.408213 -51.325635 -5.698348 6.759022 1.569868 -16.250535 6.004780 1.371822 -4.528131 -4.424238 18.670110 4.658301 -0.559299 56.611611 0.198356 18.230472 -2.548518 28.844725 19.422478 -1.253907 2.469347 6.162206 
-0.563006 0.743738 0.965903 91.320564 0.063495 90.522307 -0.559946 -3.794896 -14.587040 -4.434209 -3.497518 26.470798 4.850136 13.610044 -21.674828 0.000000 -0.000000 0.000000 4.563371 1.715250 -13.200401 -2.741987 -0.948469 24.433643 0.579142 -12.661558 -21.731194 0.000000 -0.000000 0.000000 -1.187036 1.974245 19.167184 -0.760432 -2.051212 -3.383958 -0.061545 -0.797898 4.880680 3.690668 0.490777 -14.389141 5.448724 -5.416997 -6.506983 -21.100899 -1.352711 0.544454 -51.259738 -4.877554 6.585298 1.020499 -16.484650 6.303488 1.214782 -4.474286 -4.426911 18.428869 4.468568 -0.348791 56.447959 -0.491125 18.069765 -2.044832 29.209176 20.225604 -1.089452 2.565789 6.276663 
-0.563464 0.743243 0.961171 91.227162 0.062484 91.222266 -0.254830 -4.127145 -16.649330 -4.935229 -3.176598 28.902574 5.075344 14.195138 -23.003679 0.000000 -0.000000 0.000000 4.415960 2.116574 -15.336556 -2.425210 -1.161825 26.996772 0.450902 -12.993274 -23.044986 0.000000 -0.000000 0.000000 -1.082279 1.975414 20.429443 -0.913674 -1.901083 -3.967559 -0.104789 -0.733616 5.009217 3.707596 0.545697 -15.318851 5.671835 -5.222059 -7.775513 -21.022277 -1.026638 0.764524 -51.274882 -3.795133 6.511943 0.424482 -16.061027 6.946432 1.036133 -4.502324 -4.577148 18.006375 4.363641 -0.062682 56.296303 -1.180449 18.118550 -0.733829 29.130270 21.795470 -1.365331 2.676837 6.110042 
-0.566386 0.743675 0.954568 89.830461 -0.465377 92.765316 -0.266132 -4.519973 -19.770680 -5.265419 -1.737856 31.181310 5.331703 15.027646 -23.785851 0.000000 -0.000000 0.000000 3.681158 4.129037 -19.135940 -2.453279 -1.457921 30.413062 0.342034 -13.271222 -24.126038 0.000000 -0.000000 0.000000 -1.521116 2.444447 21.896412 -1.418060 -0.946453 -5.980961 -0.294520 -0.743944 5.749061 3.750883 0.971690 -17.054534 5.787200 -5.275600 -8.423040 -21.062934 -0.276750 0.681638 -51.421067 -2.755425 6.491306 -0.037785 -15.814906 7.609358 0.461561 -4.795672 -3.462010 17.446674 3.929830 0.142560 56.981142 -1.600565 18.468172 0.093932 28.874458 23.445055 -0.816867 2.548943 6.032246 
-0.564662 0.743677 0.948675 89.984739 -0.345562 93.483678 0.195998 -4.732277 -21.942497 -5.576595 -1.270237 34.025939 5.569898 15.388009 -25.083862 0.000000 -0.000000 0.000000 3.767450 4.214263 -21.000488 -2.430666 -1.611845 32.751370 0.064660 -13.554656 -25.295412 0.000000 -0.000000 0.000000 -1.312462 2.406645 22.713879 -1.505074 -0.872485 -5.935167 -0.335364 -0.565815 5.552627 3.657226 0.778698 -17.480168 6.069104 -4.823542 -10.066609 -21.793798 0.144680 0.778743 -51.401509 -1.657928 6.345103 -0.519849 -15.395674 7.965208 0.143210 -4.419178 -3.041707 17.582547 3.885976 0.584867 56.968671 -2.356059 18.294923 0.959477 28.473147 24.383810 0.024672 2.205020 6.184526 
-0.563982 0.742793 0.941479 90.659795 0.047793 94.566626 1.158759 -5.295642 -25.046802 -5.890429 -0.560429 37.537680 5.916479 15.512507 -26.440407 0.000000 -0.000000 0.000000 3.964071 4.485494 -23.554704 -2.295465 -2.170659 35.563282 -0.231316 -14.110676 -26.630657 0.000000 -0.000000 0.000000 -0.919530 2.176533 23.332115 -1.228751 -0.936940 -6.261536 -0.379029 -0.629736 5.654496 3.751281 0.872777 -18.663234 5.910063 -4.580762 -10.745195 -22.134419 0.730596 0.911224 -52.077211 -1.000965 6.446224 -0.814213 -14.852538 8.579897 -0.543363 -4.577786 -3.962624 17.646577 3.384235 0.796077 57.096810 -2.747509 18.540932 1.466882 28.205665 25.646795 0.818078 2.021858 6.372542 
-0.559232 0.741864 0.931922 90.473720 0.057801 94.949219 1.325129 -4.901084 -27.015329 -5.972477 -0.028385 41.311446 6.063524 15.583003 -28.443013 0.000000 -0.000000 0.000000 3.832092 4.803551 -25.398899 -2.534188 -2.662405 39.015281 -0.377810 -13.923715 -28.237619 0.000000 -0.000000 0.000000 -0.883251 2.090679 25.374890 -1.577971 -0.538567 -6.526390 -0.175320 -0.555697 5.105729 3.663114 0.821584 -19.976901 6.148324 -4.235725 -12.295962 -22.662122 0.575452 1.262361 -53.005987 0.226034 6.295427 -1.007788 -14.981581 9.136147 -0.388549 -4.668590 -4.237144 17.842656 3.616555 1.085245 57.680471 -3.306383 17.967653 1.695194 27.524594 25.994590 1.096509 2.063112 6.925939 
